<mxfile host="app.diagrams.net" modified="2022-01-26T17:29:18.570Z" agent="5.0 (Windows NT 10.0; Win64; x64) AppleWebKit/537.36 (KHTML, like Gecko) Chrome/96.0.4664.110 Safari/537.36 OPR/82.0.4227.58" etag="R2lbwBoqTfkRhC5ykdep" version="16.4.7" type="github">
  <diagram id="R2lEEEUBdFMjLlhIrx00" name="Page-1">
    <mxGraphModel dx="1848" dy="540" grid="1" gridSize="10" guides="1" tooltips="1" connect="1" arrows="1" fold="1" page="1" pageScale="1" pageWidth="850" pageHeight="1100" math="0" shadow="0" extFonts="Permanent Marker^https://fonts.googleapis.com/css?family=Permanent+Marker">
      <root>
        <mxCell id="0" />
        <mxCell id="1" parent="0" />
        <mxCell id="rDHi2IthwMf_unDpR9xK-4" value="Food" style="swimlane;" vertex="1" parent="1">
          <mxGeometry x="20" y="30" width="200" height="200" as="geometry" />
        </mxCell>
        <mxCell id="rDHi2IthwMf_unDpR9xK-5" value="PK&amp;nbsp; &amp;nbsp;id INT" style="text;html=1;align=center;verticalAlign=middle;resizable=0;points=[];autosize=1;strokeColor=none;fillColor=none;" vertex="1" parent="rDHi2IthwMf_unDpR9xK-4">
          <mxGeometry x="15" y="30" width="70" height="20" as="geometry" />
        </mxCell>
        <mxCell id="rDHi2IthwMf_unDpR9xK-12" value="&lt;blockquote style=&quot;margin: 0 0 0 40px ; border: none ; padding: 0px&quot;&gt;&lt;span style=&quot;white-space: pre&quot;&gt;	&lt;/span&gt;&lt;span style=&quot;white-space: pre&quot;&gt;	&lt;/span&gt;food_type varchar(10) NOT NULL&lt;/blockquote&gt;" style="text;html=1;align=center;verticalAlign=middle;resizable=0;points=[];autosize=1;strokeColor=none;fillColor=none;" vertex="1" parent="rDHi2IthwMf_unDpR9xK-4">
          <mxGeometry x="-95" y="50" width="290" height="20" as="geometry" />
        </mxCell>
        <mxCell id="rDHi2IthwMf_unDpR9xK-13" value="Text" style="text;html=1;align=center;verticalAlign=middle;resizable=0;points=[];autosize=1;strokeColor=none;fillColor=none;" vertex="1" parent="rDHi2IthwMf_unDpR9xK-4">
          <mxGeometry x="10" y="70" width="40" height="20" as="geometry" />
        </mxCell>
        <mxCell id="rDHi2IthwMf_unDpR9xK-25" value="FK: food_ingredients(food_id)" style="text;html=1;align=center;verticalAlign=middle;resizable=0;points=[];autosize=1;strokeColor=none;fillColor=none;" vertex="1" parent="rDHi2IthwMf_unDpR9xK-4">
          <mxGeometry y="170" width="170" height="20" as="geometry" />
        </mxCell>
        <mxCell id="rDHi2IthwMf_unDpR9xK-14" value="Food_Ingredients" style="swimlane;" vertex="1" parent="1">
          <mxGeometry x="-280" y="30" width="200" height="200" as="geometry" />
        </mxCell>
        <mxCell id="rDHi2IthwMf_unDpR9xK-15" value="FK: food_id" style="text;html=1;align=center;verticalAlign=middle;resizable=0;points=[];autosize=1;strokeColor=none;fillColor=none;" vertex="1" parent="rDHi2IthwMf_unDpR9xK-14">
          <mxGeometry y="30" width="80" height="20" as="geometry" />
        </mxCell>
        <mxCell id="rDHi2IthwMf_unDpR9xK-16" value="FK: ingredient_id" style="text;html=1;align=center;verticalAlign=middle;resizable=0;points=[];autosize=1;strokeColor=none;fillColor=none;" vertex="1" parent="rDHi2IthwMf_unDpR9xK-14">
          <mxGeometry y="50" width="110" height="20" as="geometry" />
        </mxCell>
        <mxCell id="rDHi2IthwMf_unDpR9xK-18" value="Ingredients" style="swimlane;" vertex="1" parent="1">
          <mxGeometry x="-610" y="30" width="200" height="200" as="geometry" />
        </mxCell>
        <mxCell id="rDHi2IthwMf_unDpR9xK-19" value="PK: id" style="text;html=1;align=center;verticalAlign=middle;resizable=0;points=[];autosize=1;strokeColor=none;fillColor=none;" vertex="1" parent="rDHi2IthwMf_unDpR9xK-18">
          <mxGeometry x="30" y="30" width="50" height="20" as="geometry" />
        </mxCell>
        <mxCell id="rDHi2IthwMf_unDpR9xK-20" value="name: varchar(255)" style="text;html=1;align=center;verticalAlign=middle;resizable=0;points=[];autosize=1;strokeColor=none;fillColor=none;" vertex="1" parent="rDHi2IthwMf_unDpR9xK-18">
          <mxGeometry x="30" y="50" width="120" height="20" as="geometry" />
        </mxCell>
        <mxCell id="rDHi2IthwMf_unDpR9xK-21" value="price: double" style="text;html=1;strokeColor=none;fillColor=none;align=center;verticalAlign=middle;whiteSpace=wrap;rounded=0;" vertex="1" parent="rDHi2IthwMf_unDpR9xK-18">
          <mxGeometry x="20" y="70" width="100" height="30" as="geometry" />
        </mxCell>
        <mxCell id="rDHi2IthwMf_unDpR9xK-22" value="minTemp: int" style="text;html=1;align=center;verticalAlign=middle;resizable=0;points=[];autosize=1;strokeColor=none;fillColor=none;" vertex="1" parent="rDHi2IthwMf_unDpR9xK-18">
          <mxGeometry x="40" y="100" width="80" height="20" as="geometry" />
        </mxCell>
        <mxCell id="rDHi2IthwMf_unDpR9xK-23" value="maxTemp: int" style="text;html=1;align=center;verticalAlign=middle;resizable=0;points=[];autosize=1;strokeColor=none;fillColor=none;" vertex="1" parent="rDHi2IthwMf_unDpR9xK-18">
          <mxGeometry x="35" y="120" width="90" height="20" as="geometry" />
        </mxCell>
        <mxCell id="rDHi2IthwMf_unDpR9xK-26" value="FK: food_ingredients(ingredient_id)" style="text;html=1;align=center;verticalAlign=middle;resizable=0;points=[];autosize=1;strokeColor=none;fillColor=none;" vertex="1" parent="rDHi2IthwMf_unDpR9xK-18">
          <mxGeometry y="160" width="200" height="20" as="geometry" />
        </mxCell>
        <mxCell id="rDHi2IthwMf_unDpR9xK-28" value="" style="edgeStyle=entityRelationEdgeStyle;fontSize=12;html=1;endArrow=ERoneToMany;rounded=0;" edge="1" parent="1">
          <mxGeometry width="100" height="100" relative="1" as="geometry">
            <mxPoint x="-410" y="180" as="sourcePoint" />
            <mxPoint x="-280" y="110" as="targetPoint" />
          </mxGeometry>
        </mxCell>
        <mxCell id="rDHi2IthwMf_unDpR9xK-32" value="" style="edgeStyle=entityRelationEdgeStyle;fontSize=12;html=1;endArrow=none;rounded=0;startArrow=ERoneToMany;startFill=0;endFill=0;entryX=0;entryY=0.75;entryDx=0;entryDy=0;" edge="1" parent="1" target="rDHi2IthwMf_unDpR9xK-4">
          <mxGeometry width="100" height="100" relative="1" as="geometry">
            <mxPoint x="-80" y="80" as="sourcePoint" />
            <mxPoint x="-10" y="180" as="targetPoint" />
          </mxGeometry>
        </mxCell>
      </root>
    </mxGraphModel>
  </diagram>
</mxfile>
